<svg xmlns="http://www.w3.org/2000/svg" viewBox="0 0 420 360" role="img" aria-label="Grimnir vertical lockup">
  <defs>
    <linearGradient id="v-fabric" x1="0.5" y1="0" x2="0.5" y2="1">
      <stop offset="0%" stop-color="#1C1F2C"/>
      <stop offset="100%" stop-color="#0A0B10"/>
    </linearGradient>
  </defs>

  <!-- Mark, centered, 120x140 -->
  <g transform="translate(150,20)">
    <path fill="url(#v-fabric)" stroke="#2A2D3A" stroke-width="1" stroke-linejoin="round" d="M 60 6 C 36 6, 18 22, 18 46 C 18 58, 22 68, 26 74 L 22 82 L 12 92 L 6 108 L 4 130 L 8 138 L 116 138 L 116 130 L 114 108 L 108 92 L 98 82 L 94 74 C 98 68, 102 58, 102 46 C 102 22, 84 6, 60 6 Z"/>
    <path fill="#000000" d="M 38 38 C 38 22, 48 16, 60 16 C 72 16, 82 22, 82 38 C 82 54, 78 68, 72 76 C 68 80, 64 82, 60 82 C 56 82, 52 80, 48 76 C 42 68, 38 54, 38 38 Z"/>
    <line x1="54" y1="82" x2="54" y2="104" stroke="#F4F5FA" stroke-width="1.6" stroke-linecap="round"/>
    <circle cx="54" cy="107" r="2" fill="#F4F5FA"/>
    <line x1="66" y1="82" x2="66" y2="104" stroke="#F4F5FA" stroke-width="1.6" stroke-linecap="round"/>
    <circle cx="66" cy="107" r="2" fill="#F4F5FA"/>
    <line x1="60" y1="84" x2="60" y2="138" stroke="#2A2D3A" stroke-width="1"/>
    <path d="M 38 124 Q 60 132, 82 124" fill="none" stroke="#2A2D3A" stroke-width="0.8"/>
  </g>

  <!-- Rule -->
  <line x1="130" y1="182" x2="290" y2="182" stroke="#2A2D3A" stroke-width="1.2"/>

  <!-- Wordmark -->
  <text x="210" y="248" text-anchor="middle" font-family="'Space Grotesk', 'Inter', system-ui, sans-serif" font-weight="700" font-size="58" letter-spacing="8" fill="#F4F5FA">GRIMNIR</text>

  <!-- Tagline -->
  <text x="210" y="286" text-anchor="middle" font-family="'JetBrains Mono', ui-monospace, monospace" font-size="12" letter-spacing="7" fill="#9CA0AE">THE&#160;HOODED&#160;ONE</text>

  <!-- Signal dot -->
  <circle cx="210" cy="314" r="2.5" fill="#00E5FF"/>
</svg>
