<svg xmlns="http://www.w3.org/2000/svg" viewBox="0 0 120 140" role="img" aria-label="Grimnir mark, monochrome light">
  <!-- For use on dark backgrounds. Paper silhouette with arched face void via even-odd. -->
  <path fill="#F4F5FA" fill-rule="evenodd" d="M 60 6 C 36 6, 18 22, 18 46 C 18 58, 22 68, 26 74 L 22 82 L 12 92 L 6 108 L 4 130 L 8 138 L 116 138 L 116 130 L 114 108 L 108 92 L 98 82 L 94 74 C 98 68, 102 58, 102 46 C 102 22, 84 6, 60 6 Z M 38 38 C 38 22, 48 16, 60 16 C 72 16, 82 22, 82 38 C 82 54, 78 68, 72 76 C 68 80, 64 82, 60 82 C 56 82, 52 80, 48 76 C 42 68, 38 54, 38 38 Z"/>
  <line x1="54" y1="82" x2="54" y2="104" stroke="#F4F5FA" stroke-width="1.6" stroke-linecap="round"/>
  <circle cx="54" cy="107" r="2" fill="#F4F5FA"/>
  <line x1="66" y1="82" x2="66" y2="104" stroke="#F4F5FA" stroke-width="1.6" stroke-linecap="round"/>
  <circle cx="66" cy="107" r="2" fill="#F4F5FA"/>
</svg>
